<svg width="14" height="14" viewBox="0 0 14 14" fill="none" xmlns="http://www.w3.org/2000/svg">
<path d="M7 14C5.61553 14 4.26216 13.5895 3.11101 12.8203C1.95987 12.0511 1.06266 10.9579 0.532846 9.67879C0.00303298 8.3997 -0.13559 6.99224 0.134506 5.63437C0.404603 4.2765 1.07129 3.02922 2.05026 2.05026C3.02922 1.07129 4.2765 0.404603 5.63437 0.134506C6.99224 -0.13559 8.3997 0.00303298 9.67879 0.532846C10.9579 1.06266 12.0511 1.95987 12.8203 3.11101C13.5895 4.26216 14 5.61553 14 7C13.9979 8.85587 13.2597 10.6351 11.9474 11.9474C10.6351 13.2597 8.85587 13.9979 7 14ZM7 2C5.67392 2 4.40215 2.52679 3.46447 3.46447C2.52679 4.40215 2 5.67392 2 7C2 8.32609 2.52679 9.59785 3.46447 10.5355C4.40215 11.4732 5.67392 12 7 12C8.32609 12 9.59785 11.4732 10.5355 10.5355C11.4732 9.59785 12 8.32609 12 7C12 5.67392 11.4732 4.40215 10.5355 3.46447C9.59785 2.52679 8.32609 2 7 2ZM7 10C6.20435 10 5.44129 9.68393 4.87868 9.12132C4.31607 8.55871 4 7.79565 4 7C4 6.20435 4.31607 5.44129 4.87868 4.87868C5.44129 4.31607 6.20435 4 7 4C7.79565 4 8.55871 4.31607 9.12132 4.87868C9.68393 5.44129 10 6.20435 10 7C10 7.79565 9.68393 8.55871 9.12132 9.12132C8.55871 9.68393 7.79565 10 7 10Z" fill="#C4C4C4"/>
</svg>
