<svg width="16" height="16" viewBox="0 0 16 16" fill="none" xmlns="http://www.w3.org/2000/svg">
<g clip-path="url(#clip0_553_218)">
<path d="M6.00023 0.5C6.00023 0.367392 6.05291 0.240215 6.14667 0.146447C6.24044 0.0526784 6.36762 0 6.50023 0L9.50023 0C9.63284 0 9.76001 0.0526784 9.85378 0.146447C9.94755 0.240215 10.0002 0.367392 10.0002 0.5C10.0002 0.632608 9.94755 0.759785 9.85378 0.853553C9.76001 0.947322 9.63284 1 9.50023 1H9.00023V2.07C10.362 2.26658 11.6357 2.86007 12.6622 3.77633C13.6886 4.6926 14.4223 5.89101 14.7716 7.22186C15.1209 8.5527 15.0704 9.95697 14.6262 11.2592C14.182 12.5615 13.364 13.704 12.2742 14.544L12.8752 15.146C12.9691 15.2398 13.0219 15.367 13.022 15.4996C13.0221 15.6323 12.9695 15.7596 12.8757 15.8535C12.782 15.9474 12.6548 16.0002 12.5221 16.0003C12.3894 16.0004 12.2621 15.9478 12.1682 15.854L11.4222 15.108C10.3772 15.6946 9.19861 16.0018 8.00023 16C6.80185 16.0018 5.62324 15.6946 4.57823 15.108L3.83223 15.854C3.78574 15.9004 3.73056 15.9372 3.66985 15.9623C3.60913 15.9874 3.54407 16.0003 3.47837 16.0003C3.41268 16.0002 3.34763 15.9872 3.28695 15.9621C3.22627 15.9369 3.17115 15.9 3.12473 15.8535C3.07831 15.807 3.04149 15.7518 3.0164 15.6911C2.9913 15.6304 2.9784 15.5653 2.97845 15.4996C2.97854 15.367 3.03134 15.2398 3.12523 15.146L3.72723 14.544C2.63751 13.704 1.81945 12.5616 1.37523 11.2594C0.931014 9.95726 0.880332 8.55306 1.22952 7.22224C1.57871 5.89143 2.31228 4.693 3.33861 3.77667C4.36493 2.86034 5.6385 2.26673 7.00023 2.07V1H6.50023C6.36762 1 6.24044 0.947322 6.14667 0.853553C6.05291 0.759785 6.00023 0.632608 6.00023 0.5ZM8.50023 5.5C8.50023 5.36739 8.44755 5.24021 8.35378 5.14645C8.26001 5.05268 8.13284 5 8.00023 5C7.86762 5 7.74044 5.05268 7.64667 5.14645C7.55291 5.24021 7.50023 5.36739 7.50023 5.5V8.862L6.07123 11.242C6.00293 11.3558 5.98264 11.492 6.0148 11.6208C6.04696 11.7495 6.12895 11.8602 6.24273 11.9285C6.35651 11.9968 6.49275 12.0171 6.6215 11.9849C6.75024 11.9528 6.86093 11.8708 6.92923 11.757L8.42923 9.257C8.47572 9.17934 8.50026 9.09051 8.50023 9V5.5ZM0.860227 5.387C0.601487 5.16194 0.391817 4.88605 0.244256 4.57649C0.0966952 4.26693 0.0143991 3.93032 0.00248571 3.5876C-0.0094277 3.24488 0.0492963 2.90337 0.175006 2.58431C0.300715 2.26525 0.490722 1.97547 0.73321 1.73298C0.975697 1.49049 1.26548 1.30049 1.58454 1.17478C1.9036 1.04907 2.2451 0.990345 2.58783 1.00226C2.93055 1.01417 3.26716 1.09647 3.57671 1.24403C3.88627 1.39159 4.16216 1.60126 4.38723 1.86C2.86718 2.63175 1.63197 3.86695 0.860227 5.387ZM11.6132 1.86C11.8383 1.60126 12.1142 1.39159 12.4237 1.24403C12.7333 1.09647 13.0699 1.01417 13.4126 1.00226C13.7554 0.990345 14.0969 1.04907 14.4159 1.17478C14.735 1.30049 15.0248 1.49049 15.2672 1.73298C15.5097 1.97547 15.6997 2.26525 15.8254 2.58431C15.9512 2.90337 16.0099 3.24488 15.998 3.5876C15.9861 3.93032 15.9038 4.26693 15.7562 4.57649C15.6086 4.88605 15.399 5.16194 15.1402 5.387C14.3685 3.86695 13.1333 2.63175 11.6132 1.86Z" fill="#373737"/>
</g>
<defs>
<clipPath id="clip0_553_218">
<rect width="16" height="16" fill="white"/>
</clipPath>
</defs>
</svg>
